<svg id="_0471_3d_model" xmlns="http://www.w3.org/2000/svg" viewBox="0 0 500 500" data-imageid="3d-model-88" imageName="3D Model" class="illustrations_image" style="width: 141px;"><defs><style>.cls-1_3d-model-88,.cls-2_3d-model-88{fill:#fff;}.cls-3_3d-model-88,.cls-4_3d-model-88{fill:#a5a5a5;}.cls-4_3d-model-88{opacity:.42;}.cls-5_3d-model-88{fill:#e6e6e6;}.cls-6_3d-model-88{fill:none;opacity:.03;}.cls-2_3d-model-88{opacity:.44;}.cls-7_3d-model-88{opacity:.58;}.cls-7_3d-model-88,.cls-8_3d-model-88,.cls-9_3d-model-88{fill:#68e1fd;}.cls-10_3d-model-88{opacity:.2;}.cls-10_3d-model-88,.cls-11_3d-model-88,.cls-12_3d-model-88{fill:#000001;}.cls-13_3d-model-88{fill:#24285b;}.cls-8_3d-model-88{opacity:.73;}.cls-12_3d-model-88{opacity:.1;}.cls-14_3d-model-88{fill:#ffd200;}</style></defs><g id="sd_3d-model-88" class="cls-6_3d-model-88"><ellipse class="cls-11_3d-model-88" cx="252.14" cy="396.69" rx="228.74" ry="53.12"/></g><g id="keyboard_3d-model-88"><polygon class="cls-5_3d-model-88" points="364.01 380.59 256.57 380.59 245.26 380.59 137.82 380.59 111.59 449.81 245.26 449.81 256.57 449.81 390.24 449.81 364.01 380.59"/><polygon class="cls-3_3d-model-88" points="299.11 392.13 242.33 392.13 233.74 392.13 147.06 392.13 132.27 438.27 233.74 438.27 242.33 438.27 315.74 438.27 299.11 392.13"/><polygon class="cls-4_3d-model-88" points="310.68 392.13 328.69 438.27 373.06 438.27 354.13 392.13 310.68 392.13"/><polygon class="cls-3_3d-model-88" points="111.59 449.81 121.18 462.68 378.98 462.68 390.24 449.81 111.59 449.81"/></g><g id="plant_3d-model-88"><path class="cls-7_3d-model-88 targetColor" d="m50.42,362.85s-25.7-7.02-31.29-30.93c0,0,39.82-8.05,40.95,33.05l-9.66-2.11Z" style="fill: rgb(253, 199, 99);"/><path class="cls-8_3d-model-88 targetColor" d="m53.56,360.31s-17.95-28.38-2.15-54.92c0,0,30.27,19.23,16.82,54.98l-14.67-.06Z" style="fill: rgb(253, 199, 99);"/><path class="cls-9_3d-model-88 targetColor" d="m58.19,360.32s9.49-29.97,38.16-35.65c0,0,5.38,19.46-18.57,35.73l-19.59-.08Z" style="fill: rgb(253, 199, 99);"/><polygon class="cls-13_3d-model-88" points="39.56 359.65 44.76 395.29 77.57 395.43 82.41 359.83 39.56 359.65"/></g><g id="_3d_model_3d-model-88"><polygon class="cls-3_3d-model-88" points="221.94 264.28 208.99 346.49 295.3 346.49 275.45 264.28 221.94 264.28"/><rect class="cls-5_3d-model-88" x="189.3" y="332.08" width="121.38" height="26.42"/><rect class="cls-5_3d-model-88" x="49.4" y="37.32" width="394.78" height="256.5"/><rect class="cls-9_3d-model-88 targetColor" x="63.56" y="50.63" width="364.73" height="205.45" style="fill: rgb(253, 199, 99);"/><rect class="cls-13_3d-model-88" x="63.56" y="50.63" width="364.74" height="27.07"/><circle class="cls-1_3d-model-88" cx="79.08" cy="63.06" r="5.96"/><circle class="cls-9_3d-model-88 targetColor" cx="96.81" cy="63.06" r="5.96" style="fill: rgb(253, 199, 99);"/><circle class="cls-14_3d-model-88" cx="113.53" cy="63.06" r="5.96"/><circle class="cls-3_3d-model-88" cx="251.36" cy="273.75" r="7.47"/><rect class="cls-14_3d-model-88" x="63.56" y="77.7" width="62.41" height="178.38"/><rect class="cls-14_3d-model-88" x="365.87" y="77.7" width="62.43" height="178.38"/><polygon class="cls-12_3d-model-88" points="242.44 168 311.97 127.59 311.77 199.24 242.24 239.64 242.44 168"/><polygon class="cls-2_3d-model-88" points="180.09 132 249.62 91.59 311.97 127.59 242.44 168 180.09 132"/><polygon class="cls-10_3d-model-88" points="242.44 168 242.24 239.64 179.89 203.64 180.09 132 242.44 168"/><rect class="cls-2_3d-model-88" x="78.86" y="97.33" width="31.68" height="28.49"/><polygon class="cls-2_3d-model-88" points="110.54 241.33 82.06 241.33 82.06 212.85 110.54 241.33"/><polygon class="cls-2_3d-model-88" points="102.66 153.47 84.35 153.47 75.2 169.33 84.35 185.19 102.66 185.19 111.81 169.33 102.66 153.47"/><rect class="cls-2_3d-model-88" x="378.74" y="111.71" width="36.68" height="6.51"/><rect class="cls-12_3d-model-88" x="378.74" y="127.24" width="11.69" height="3.25"/><rect class="cls-12_3d-model-88" x="395.75" y="127.24" width="19.67" height="3.25"/><rect class="cls-12_3d-model-88" x="378.74" y="139.51" width="21.45" height="3.25"/><rect class="cls-12_3d-model-88" x="407.58" y="139.51" width="7.84" height="3.25"/><rect class="cls-12_3d-model-88" x="378.82" y="151.71" width="6.29" height="3.25"/><rect class="cls-12_3d-model-88" x="388.65" y="151.71" width="26.84" height="3.25"/><rect class="cls-12_3d-model-88" x="378.82" y="163.99" width="30.54" height="3.25"/><rect class="cls-2_3d-model-88" x="378.74" y="185.66" width="36.68" height="6.51"/><rect class="cls-12_3d-model-88" x="378.74" y="201.19" width="11.69" height="3.25"/><rect class="cls-12_3d-model-88" x="395.75" y="201.19" width="19.67" height="3.25"/><rect class="cls-12_3d-model-88" x="378.74" y="213.46" width="21.45" height="3.25"/><rect class="cls-12_3d-model-88" x="407.58" y="213.46" width="7.84" height="3.25"/><rect class="cls-12_3d-model-88" x="378.82" y="225.67" width="6.29" height="3.25"/><rect class="cls-12_3d-model-88" x="388.65" y="225.67" width="26.84" height="3.25"/><rect class="cls-12_3d-model-88" x="378.82" y="237.94" width="30.54" height="3.25"/><polygon class="cls-2_3d-model-88" points="140.91 103.9 149.34 96.09 148.16 94.81 139.56 102.78 139.56 88.5 137.82 88.5 137.82 105.64 155.85 105.64 155.85 103.9 140.91 103.9"/></g></svg>